<svg width="52.000000" height="51.000000" viewBox="0 0 52 51" fill="none"
    xmlns="http://www.w3.org/2000/svg"
    xmlns:xlink="http://www.w3.org/1999/xlink">
    <desc>
			Created with Pixso.
    </desc>
    <defs/>
    <g opacity="0.250000">
        <g opacity="0.250000"/>
        <g opacity="0.250000">
            <path id="Vector" d="M26 50C12.19 50 1 39.03 1 25.5C1 11.96 12.19 1 26 1C39.8 1 51 11.96 51 25.5C51 39.03 39.8 50 26 50Z" stroke="#33A0FF" stroke-opacity="1.000000" stroke-width="2.000000"/>
        </g>
    </g>
    <path id="hearts" d="M28.93 19.53C29.57 19.53 30.2 19.72 30.75 20.07C31.29 20.42 31.71 20.92 31.98 21.51C32.24 22.09 32.33 22.74 32.23 23.38C32.14 24.02 31.86 24.61 31.43 25.09C30.82 25.78 25.59 30.68 25.59 30.68C25.59 30.68 20.35 25.79 19.74 25.08C19.2 24.48 18.9 23.69 18.9 22.88C18.92 22 19.28 21.16 19.9 20.55C20.53 19.93 21.37 19.59 22.25 19.59C23.12 19.59 23.97 19.93 24.59 20.55C25.22 21.16 25.58 22 25.59 22.88C25.59 22.44 25.68 22 25.85 21.6C26.01 21.19 26.26 20.82 26.57 20.51C26.88 20.2 27.25 19.95 27.66 19.79C28.06 19.62 28.5 19.53 28.93 19.53L28.93 19.53ZM28.93 17.3C27.73 17.3 26.55 17.69 25.59 18.42C24.49 17.6 23.12 17.22 21.75 17.34C20.38 17.47 19.11 18.1 18.18 19.11C17.24 20.12 16.72 21.44 16.7 22.82C16.68 24.19 17.17 25.52 18.07 26.56C18.7 27.28 22.82 31.14 24.07 32.3C24.48 32.69 25.03 32.9 25.59 32.9C26.16 32.9 26.7 32.69 27.12 32.3C28.36 31.14 32.47 27.29 33.1 26.57C33.81 25.77 34.28 24.78 34.44 23.71C34.6 22.65 34.45 21.57 34.01 20.59C33.57 19.61 32.86 18.78 31.96 18.2C31.05 17.61 30 17.3 28.93 17.3L28.93 17.3Z" fill="#33A0FF" fill-opacity="1.000000" fill-rule="evenodd"/>
</svg>
