<svg width="51.000000" height="51.000000" viewBox="0 0 51 51" fill="none"
    xmlns="http://www.w3.org/2000/svg"
    xmlns:xlink="http://www.w3.org/1999/xlink">
    <desc>
			Created with Pixso.
    </desc>
    <defs/>
    <g opacity="0.250000">
        <g opacity="0.250000"/>
        <g opacity="0.250000">
            <path id="Vector" d="M25.5 50C11.96 50 1 39.03 1 25.5C1 11.96 11.96 1 25.5 1C39.03 1 50 11.96 50 25.5C50 39.03 39.03 50 25.5 50Z" stroke="#33A0FF" stroke-opacity="1.000000" stroke-width="2.000000"/>
        </g>
    </g>
    <path id="cart_2" d="M31.55 28.45C32.06 28.45 32.56 28.27 32.96 27.94C33.35 27.62 33.63 27.16 33.73 26.66L34.84 21.09C34.9 20.76 34.9 20.43 34.82 20.11C34.74 19.79 34.59 19.49 34.38 19.24C34.17 18.98 33.91 18.78 33.61 18.63C33.31 18.49 32.99 18.42 32.66 18.42L21.56 18.42L21.56 17.3C21.56 17.01 21.44 16.73 21.23 16.52C21.03 16.31 20.74 16.19 20.45 16.19L18.23 16.19C17.94 16.2 17.67 16.32 17.47 16.53C17.26 16.74 17.15 17.01 17.15 17.3C17.15 17.59 17.26 17.87 17.47 18.08C17.67 18.29 17.94 18.41 18.23 18.42L19.35 18.42L19.35 29.56C18.91 29.56 18.47 29.69 18.11 29.93C17.74 30.18 17.45 30.53 17.28 30.93C17.11 31.34 17.07 31.79 17.15 32.22C17.24 32.65 17.45 33.05 17.76 33.37C18.07 33.68 18.47 33.89 18.9 33.98C19.33 34.07 19.78 34.02 20.19 33.85C20.6 33.68 20.95 33.4 21.19 33.03C21.44 32.67 21.57 32.23 21.57 31.79L29.33 31.79C29.33 32.23 29.47 32.66 29.71 33.02C29.96 33.39 30.3 33.67 30.71 33.84C31.12 34 31.56 34.05 31.99 33.96C32.42 33.87 32.82 33.66 33.13 33.35C33.44 33.04 33.65 32.64 33.73 32.21C33.82 31.78 33.77 31.34 33.6 30.93C33.43 30.53 33.15 30.18 32.79 29.94C32.42 29.69 31.99 29.56 31.55 29.56L21.57 29.56L21.57 28.45L31.55 28.45ZM32.66 20.65L31.55 26.22L21.56 26.22L21.56 20.65L32.66 20.65L32.66 20.65Z" fill="#33A0FF" fill-opacity="1.000000" fill-rule="evenodd"/>
</svg>
