<svg width="16.952637" height="17.013275" viewBox="0 0 16.9526 17.0133" fill="none"
    xmlns="http://www.w3.org/2000/svg"
    xmlns:xlink="http://www.w3.org/1999/xlink">
    <desc>
			Created with Pixso.
    </desc>
    <defs/>
    <path id="cart_2" d="M13.77 11.69C14.26 11.69 14.73 11.52 15.11 11.21C15.49 10.9 15.75 10.46 15.84 9.98L16.91 4.67C16.97 4.36 16.96 4.04 16.88 3.73C16.81 3.43 16.67 3.14 16.47 2.9C16.27 2.66 16.02 2.46 15.73 2.33C15.45 2.19 15.14 2.12 14.83 2.12L4.25 2.12L4.25 1.06C4.25 0.78 4.13 0.51 3.93 0.31C3.74 0.11 3.47 0 3.18 0L1.07 0C0.79 0 0.52 0.11 0.32 0.31C0.12 0.51 0 0.78 0 1.06C0 1.34 0.12 1.61 0.32 1.81C0.52 2.01 0.79 2.12 1.07 2.12L2.13 2.12L2.13 12.76C1.71 12.75 1.3 12.88 0.95 13.11C0.6 13.34 0.32 13.67 0.16 14.06C0 14.45 -0.05 14.88 0.03 15.29C0.12 15.7 0.32 16.08 0.61 16.38C0.91 16.68 1.29 16.88 1.7 16.97C2.11 17.05 2.54 17.01 2.93 16.85C3.32 16.69 3.65 16.41 3.89 16.06C4.12 15.71 4.25 15.3 4.25 14.88L11.65 14.88C11.65 15.3 11.78 15.71 12.01 16.06C12.25 16.4 12.58 16.67 12.97 16.83C13.35 16.99 13.78 17.03 14.19 16.95C14.6 16.87 14.97 16.66 15.27 16.37C15.56 16.07 15.77 15.69 15.85 15.28C15.93 14.87 15.88 14.45 15.72 14.06C15.56 13.67 15.29 13.34 14.94 13.11C14.6 12.88 14.19 12.76 13.77 12.76L4.25 12.76L4.25 11.69L13.77 11.69ZM14.83 4.25L13.77 9.56L4.25 9.56L4.25 4.25L14.83 4.25L14.83 4.25Z" fill="#33A0FF" fill-opacity="1.000000" fill-rule="evenodd"/>
</svg>
