<svg width="150.285889" height="27.646606" viewBox="0 0 150.286 27.6466" fill="none"
    xmlns="http://www.w3.org/2000/svg"
    xmlns:xlink="http://www.w3.org/1999/xlink">
    <desc>
			Created with Pixso.
    </desc>
    <defs/>
    <g opacity="0.500000">
        <g opacity="0.500000"/>
        <g opacity="0.500000">
            <path id="Vector" d="M13.47 26.58C6.6 26.58 1.03 20.87 1.03 13.82C1.03 6.77 6.6 1.06 13.47 1.06C20.34 1.06 25.91 6.77 25.91 13.82C25.91 20.87 20.34 26.58 13.47 26.58Z" stroke="#006CFF" stroke-opacity="1.000000" stroke-width="2.000000" stroke-linejoin="round"/>
        </g>
    </g>
    <path id="Ellipse 1 copy" d="M21.76 13.82C21.76 18.52 18.05 22.33 13.47 22.33C8.89 22.33 5.18 18.52 5.18 13.82C5.18 9.12 8.89 5.31 13.47 5.31C18.05 5.31 21.76 9.12 21.76 13.82Z" fill="#006CFF" fill-opacity="1.000000" fill-rule="evenodd"/>
    <path id="Ellipse 1 copy 2" d="M65.29 13.82C65.29 19.69 60.65 24.45 54.93 24.45C49.2 24.45 44.56 19.69 44.56 13.82C44.56 7.95 49.2 3.18 54.93 3.18C60.65 3.18 65.29 7.95 65.29 13.82Z" fill="#FC3E39" fill-opacity="1.000000" fill-rule="evenodd"/>
    <path id="Ellipse 1 copy 3" d="M107.79 13.82C107.79 19.69 103.15 24.45 97.42 24.45C91.7 24.45 87.06 19.69 87.06 13.82C87.06 7.95 91.7 3.18 97.42 3.18C103.15 3.18 107.79 7.95 107.79 13.82Z" fill="#171717" fill-opacity="1.000000" fill-rule="evenodd"/>
    <path id="Ellipse 1 copy 4" d="M150.28 13.82C150.28 19.69 145.64 24.45 139.92 24.45C134.19 24.45 129.55 19.69 129.55 13.82C129.55 7.95 134.19 3.18 139.92 3.18C145.64 3.18 150.28 7.95 150.28 13.82Z" fill="#FFF600" fill-opacity="1.000000" fill-rule="evenodd"/>
</svg>
