<svg width="123.277832" height="48.913239" viewBox="0 0 123.278 48.9132" fill="none" xmlns="http://www.w3.org/2000/svg" xmlns:xlink="http://www.w3.org/1999/xlink">
	<desc>
			Created with Pixso.
	</desc>
	<defs/>
	<path id="Rectangle 39" d="M4.25 0L119.02 0C121.37 0 123.27 1.9 123.27 4.25L123.27 44.65C123.27 47 121.37 48.91 119.02 48.91L4.25 48.91C1.9 48.91 0 47 0 44.65L0 4.25C0 1.9 1.9 0 4.25 0Z" fill="#F6F7F8" fill-opacity="1.000000" fill-rule="evenodd"/>
	<path id="2" d="M65.18 28.76L57.84 28.76L57.84 27.73L61.68 23.53C63.03 22.06 63.66 21.26 63.66 20.19C63.66 18.96 62.69 18.19 61.43 18.19C60.08 18.19 59.22 19.07 59.22 20.39L57.88 20.39C57.88 18.34 59.44 16.96 61.47 16.96C63.52 16.96 64.97 18.39 64.97 20.19C64.97 21.48 64.38 22.48 62.38 24.62L59.77 27.42L59.77 27.51L65.18 27.51L65.18 28.76Z" fill="#262626" fill-opacity="1.000000" fill-rule="evenodd"/>
	<path id="Rectangle 11 copy 3" d="M96.7 23.39L105.21 23.39L105.21 25.52L96.7 25.52L96.7 23.39Z" fill="#33A0FF" fill-opacity="1.000000" fill-rule="evenodd"/>
	<path id="Rectangle 11 copy 3" d="M102.02 20.2L102.02 28.71L99.89 28.71L99.89 20.2L102.02 20.2Z" fill="#33A0FF" fill-opacity="1.000000" fill-rule="evenodd"/>
	<path id="Rectangle 11 copy 3" d="M18.06 23.39L26.56 23.39L26.56 25.52L18.06 25.52L18.06 23.39Z" fill="#33A0FF" fill-opacity="1.000000" fill-rule="evenodd"/>
</svg>
