<svg width="68.806152" height="78.167725" viewBox="0 0 68.8062 78.1677" fill="none"
    xmlns="http://www.w3.org/2000/svg"
    xmlns:xlink="http://www.w3.org/1999/xlink">
    <desc>
			Created with Pixso.
    </desc>
    <defs/>
    <path id="Path 1" d="M55.5 16.58L51.73 21.42C57.08 25.56 60.76 31.49 62.12 38.11C63.47 44.74 62.41 51.63 59.11 57.54C55.82 63.45 50.52 67.99 44.18 70.32C37.83 72.66 30.85 72.64 24.52 70.28C18.18 67.92 12.9 63.36 9.63 57.44C6.37 51.51 5.33 44.62 6.71 37.99C8.1 31.37 11.81 25.47 17.17 21.35C22.53 17.23 29.2 15.16 35.95 15.53L30.64 21.1L34.58 24.86L42.96 16.06L46.71 12.11L42.78 8.37L33.99 0L30.23 3.94L35.96 9.39C27.17 8.99 18.57 11.97 11.91 17.72C5.26 23.47 1.05 31.55 0.17 40.3C-0.71 49.05 1.79 57.8 7.16 64.77C12.53 71.73 20.37 76.37 29.05 77.74C30.85 78.02 32.66 78.16 34.47 78.16C41.64 78.14 48.62 75.89 54.44 71.72C60.27 67.54 64.64 61.65 66.95 54.87C69.27 48.09 69.41 40.76 67.36 33.89C65.31 27.03 61.16 20.97 55.5 16.58Z" fill="#FF6875" fill-opacity="1.000000" fill-rule="nonzero"/>
    <path id="Path 2" d="M37.77 61.3L37.77 57.77C41.96 57.3 46.03 54.65 46.03 49.63C46.03 42.81 39.69 42.02 35.05 41.45C32.09 41.1 29.82 40.69 29.82 38.89C29.82 36.39 33.34 36.13 34.85 36.13C37.09 36.13 39.49 37.18 40.3 38.53L40.54 38.92L45.19 36.77L44.96 36.3C44.27 34.93 43.25 33.76 41.99 32.89C40.74 32.02 39.28 31.48 37.76 31.31L37.76 28.2L32.32 28.2L32.32 31.29C27.24 32.05 24.23 34.86 24.23 38.89C24.23 45.46 30.19 46.13 34.55 46.62C38.43 47.07 40.23 48.03 40.23 49.63C40.23 52.69 36.01 52.92 34.71 52.92C31.83 52.92 29.06 51.49 28.25 49.57L28.05 49.1L22.99 51.24L23.2 51.72C24.69 55.22 27.93 57.42 32.32 57.94L32.32 61.3L37.77 61.3Z" fill="#FF6875" fill-opacity="1.000000" fill-rule="nonzero"/>
</svg>
