<svg width="8.125244" height="16.088196" viewBox="0 0 8.12524 16.0882" fill="none"
    xmlns="http://www.w3.org/2000/svg"
    xmlns:xlink="http://www.w3.org/1999/xlink">
    <desc>
			Created with Pixso.
    </desc>
    <defs/>
    <path id="facebook" d="M0.26 8.56L2.02 8.56L2.02 15.82C2.02 15.89 2.05 15.96 2.1 16.01C2.14 16.06 2.21 16.08 2.28 16.08L5.27 16.08C5.34 16.08 5.4 16.06 5.45 16.01C5.5 15.96 5.53 15.89 5.53 15.82L5.53 8.6L7.55 8.6C7.62 8.6 7.68 8.57 7.73 8.53C7.77 8.49 7.8 8.43 7.81 8.37L8.12 5.69C8.12 5.66 8.12 5.62 8.11 5.59C8.1 5.55 8.08 5.52 8.05 5.49C8.03 5.46 8 5.44 7.97 5.43C7.93 5.41 7.9 5.41 7.86 5.41L5.52 5.41L5.52 3.73C5.52 3.23 5.8 2.97 6.33 2.97L7.86 2.97C7.93 2.97 7.99 2.94 8.04 2.89C8.09 2.84 8.12 2.78 8.12 2.71L8.12 0.26C8.12 0.19 8.09 0.12 8.04 0.07C8 0.02 7.93 0 7.86 0L5.76 0L5.66 0C4.69 0 3.75 0.35 3.02 0.99C2.68 1.29 2.41 1.67 2.25 2.1C2.09 2.53 2.04 2.99 2.1 3.45L2.1 5.41L0.25 5.41C0.19 5.41 0.12 5.43 0.07 5.48C0.02 5.53 0 5.6 0 5.67L0 8.3C0 8.34 0 8.37 0.02 8.4C0.03 8.44 0.05 8.46 0.07 8.49C0.1 8.51 0.13 8.53 0.16 8.54C0.19 8.56 0.22 8.56 0.26 8.56Z" fill="#FFFFFF" fill-opacity="1.000000" fill-rule="nonzero"/>
</svg>
