<svg width="7.645508" height="15.129883" viewBox="0 0 7.64551 15.1299" fill="none"
    xmlns="http://www.w3.org/2000/svg"
    xmlns:xlink="http://www.w3.org/1999/xlink">
    <desc>
			Created with Pixso.
    </desc>
    <defs/>
    <path id="facebook" d="M0.24 8.05L1.9 8.05L1.9 14.88C1.9 14.95 1.93 15.01 1.97 15.05C2.02 15.1 2.08 15.12 2.14 15.12L4.96 15.12C5.02 15.12 5.08 15.1 5.13 15.05C5.17 15.01 5.2 14.95 5.2 14.88L5.2 8.09L7.11 8.09C7.17 8.08 7.22 8.06 7.27 8.02C7.31 7.98 7.34 7.93 7.35 7.87L7.64 5.36C7.64 5.32 7.64 5.29 7.63 5.25C7.62 5.22 7.6 5.19 7.58 5.16C7.56 5.14 7.53 5.12 7.5 5.1C7.47 5.09 7.43 5.08 7.4 5.08L5.2 5.08L5.2 3.51C5.2 3.03 5.45 2.79 5.96 2.79L7.39 2.79C7.46 2.79 7.52 2.77 7.57 2.72C7.61 2.67 7.64 2.61 7.64 2.55L7.64 0.24C7.64 0.18 7.61 0.11 7.57 0.07C7.52 0.02 7.46 0 7.4 0L5.42 0L5.33 0C4.41 0 3.53 0.33 2.85 0.93C2.52 1.21 2.27 1.57 2.12 1.98C1.97 2.38 1.92 2.81 1.98 3.24L1.98 5.08L0.24 5.08C0.17 5.08 0.11 5.11 0.07 5.16C0.02 5.2 0 5.26 0 5.33L0 7.81C0 7.84 0 7.87 0.01 7.9C0.03 7.93 0.04 7.96 0.07 7.98C0.09 8.01 0.12 8.02 0.15 8.04C0.18 8.05 0.21 8.05 0.24 8.05Z" fill="#385C8E" fill-opacity="1.000000" fill-rule="nonzero"/>
</svg>
