<svg width="16.961182" height="14.879395" viewBox="0 0 16.9612 14.8794" fill="none"
    xmlns="http://www.w3.org/2000/svg"
    xmlns:xlink="http://www.w3.org/1999/xlink">
    <desc>
			Created with Pixso.
    </desc>
    <defs/>
    <path id="hearts" d="M11.65 2.12C12.27 2.12 12.87 2.3 13.38 2.64C13.9 2.97 14.31 3.45 14.56 4.01C14.81 4.57 14.89 5.19 14.8 5.79C14.71 6.4 14.44 6.97 14.03 7.43C13.45 8.09 8.47 12.76 8.47 12.76C8.47 12.76 3.47 8.09 2.89 7.42C2.37 6.84 2.09 6.09 2.09 5.31C2.09 4.47 2.42 3.65 3.02 3.06C3.62 2.46 4.43 2.12 5.28 2.12C6.12 2.12 6.93 2.46 7.53 3.06C8.13 3.65 8.47 4.47 8.47 5.31C8.47 4.47 8.8 3.65 9.4 3.06C10 2.46 10.81 2.12 11.65 2.12ZM11.65 7.62e-6C10.5 -0.01 9.38 0.37 8.47 1.06C7.41 0.28 6.11 -0.08 4.81 0.04C3.51 0.17 2.29 0.77 1.41 1.73C0.52 2.69 0.02 3.94 0 5.25C-0.02 6.56 0.44 7.83 1.3 8.82C1.89 9.51 5.82 13.19 7.02 14.3C7.41 14.67 7.93 14.87 8.47 14.87C9.01 14.87 9.52 14.67 9.92 14.3C11.1 13.19 15.02 9.52 15.62 8.83C16.3 8.07 16.74 7.12 16.9 6.11C17.05 5.1 16.91 4.06 16.49 3.13C16.07 2.2 15.39 1.41 14.53 0.85C13.68 0.29 12.68 0 11.65 7.62e-6Z" fill="#33A0FF" fill-opacity="1.000000" fill-rule="evenodd"/>
</svg>
