<svg width="25.000000" height="21.000000" viewBox="0 0 25 21" fill="none"
    xmlns="http://www.w3.org/2000/svg"
    xmlns:xlink="http://www.w3.org/1999/xlink">
    <desc>
			Created with Pixso.
    </desc>
    <defs/>
    <path id="Vector" d="M18.08 0C15.77 0 13.75 0.97 12.5 2.61C11.24 0.97 9.22 0 6.91 0C5.08 0 3.32 0.71 2.02 1.98C0.73 3.26 0 4.98 0 6.78C0 14.44 11.58 20.63 12.07 20.89C12.2 20.96 12.35 21 12.5 21C12.64 21 12.79 20.96 12.92 20.89C13.41 20.63 25 14.44 25 6.78C24.99 4.98 24.26 3.26 22.97 1.98C21.67 0.71 19.91 0 18.08 0ZM12.5 19.12C10.46 17.95 1.78 12.65 1.78 6.78C1.78 5.44 2.32 4.16 3.29 3.22C4.25 2.28 5.55 1.75 6.91 1.75C9.09 1.75 10.91 2.88 11.67 4.7C11.74 4.86 11.85 5 12 5.09C12.14 5.19 12.32 5.24 12.5 5.24C12.67 5.24 12.85 5.19 12.99 5.09C13.14 5 13.25 4.86 13.32 4.7C14.08 2.88 15.9 1.75 18.08 1.75C19.44 1.75 20.74 2.28 21.7 3.22C22.67 4.16 23.21 5.44 23.21 6.78C23.21 12.64 14.53 17.95 12.5 19.12Z" fill="#000000" fill-opacity="1.000000" fill-rule="nonzero"/>
</svg>
