<svg width="38.303711" height="25.142090" viewBox="0 0 38.3037 25.1421" fill="none"
    xmlns="http://www.w3.org/2000/svg"
    xmlns:xlink="http://www.w3.org/1999/xlink">
    <desc>
			Created with Pixso.
    </desc>
    <defs/>
    <path id="Shape 327" d="M1.66 0L36.63 0C37.08 0 37.51 0.19 37.82 0.52C38.14 0.84 38.31 1.28 38.3 1.73L38.3 23.4C38.31 23.85 38.14 24.29 37.82 24.61C37.51 24.94 37.08 25.13 36.63 25.14L1.66 25.14C1.21 25.13 0.78 24.94 0.47 24.61C0.16 24.29 -0.01 23.85 0 23.4L0 1.73C-0.01 1.28 0.16 0.84 0.47 0.52C0.78 0.19 1.21 0 1.66 0Z" fill="#5870BE" fill-opacity="1.000000" fill-rule="nonzero"/>
    <path id="Shape 329" d="M16.75 12.56C16.75 10.79 17.28 9.05 18.26 7.57C19.25 6.1 20.65 4.95 22.29 4.27C23.94 3.59 25.74 3.41 27.48 3.76C29.22 4.1 30.82 4.96 32.08 6.22C33.33 7.47 34.19 9.07 34.54 10.81C34.88 12.55 34.7 14.36 34.02 16C33.35 17.64 32.19 19.04 30.72 20.03C29.24 21.02 27.51 21.54 25.73 21.54C24.55 21.54 23.38 21.31 22.29 20.86C21.2 20.41 20.21 19.75 19.38 18.91C18.55 18.08 17.88 17.09 17.43 16C16.98 14.91 16.75 13.74 16.75 12.56Z" fill="#FFAF38" fill-opacity="1.000000" fill-rule="nonzero"/>
    <path id="Shape 329" d="M11.97 21.54C10.44 21.54 8.93 21.15 7.6 20.4C6.26 19.66 5.14 18.58 4.33 17.28C3.53 15.98 3.07 14.49 3 12.96C2.93 11.43 3.26 9.91 3.94 8.54C4.63 7.17 5.65 6 6.92 5.14C8.18 4.28 9.65 3.75 11.17 3.62C12.7 3.48 14.23 3.74 15.63 4.36C17.03 4.98 18.25 5.95 19.16 7.18L17.96 7.18L17.96 7.78L19.58 7.78C19.7 7.97 19.81 8.17 19.92 8.37L17.36 8.37L17.36 8.97L20.21 8.97C20.29 9.17 20.37 9.37 20.44 9.57L16.76 9.57L16.76 10.17L20.63 10.17C21.12 11.94 21.05 13.82 20.44 15.56L16.76 15.56L16.76 16.16L20.2 16.16C20.11 16.37 20.01 16.56 19.92 16.75L17.36 16.75L17.36 17.35L19.57 17.35C19.44 17.56 19.3 17.76 19.16 17.95L17.96 17.95L17.96 18.55L18.66 18.55C17.82 19.49 16.79 20.24 15.64 20.76C14.48 21.27 13.23 21.54 11.97 21.54Z" fill="#E63737" fill-opacity="1.000000" fill-rule="nonzero"/>
    <path id="MasterCard" d="M24.08 12.57C24.95 12.68 25.59 13.3 25.64 14.21L25.11 14.14C25.06 13.52 24.59 13.14 24.01 13.06C23.23 12.96 22.53 13.49 22.39 14.62C22.24 15.74 22.78 16.43 23.57 16.53C24.14 16.6 24.7 16.35 24.9 15.76L25.43 15.83C25.15 16.7 24.38 17.13 23.51 17.02C22.4 16.88 21.7 15.92 21.88 14.55C22.06 13.18 22.97 12.43 24.08 12.57ZM2.2 14.22L2.76 9.9L3.38 9.98L4.39 13.76L4.44 13.76L6.38 10.36L7 10.44L6.45 14.77L5.96 14.71L6.38 11.42L6.34 11.41L4.56 14.53L4.09 14.47L3.16 11L3.11 11L2.69 14.29L2.2 14.22ZM33.74 17.76C33.61 17.93 33.34 18.29 32.72 18.21C31.91 18.11 31.42 17.38 31.56 16.35C31.69 15.33 32.34 14.75 33.16 14.86C33.79 14.94 33.94 15.35 34.02 15.53L34.07 15.54L34.27 13.94L34.77 14L34.22 18.33L33.73 18.27L33.8 17.77L33.74 17.76ZM15.03 12.57L15.72 12.66L15.67 13.08L14.97 12.99L14.73 14.89C14.68 15.31 14.88 15.4 15.1 15.43C15.21 15.45 15.28 15.44 15.32 15.44L15.37 15.9C15.3 15.91 15.17 15.93 14.99 15.91C14.57 15.85 14.14 15.52 14.21 14.96L14.48 12.93L13.99 12.87L14.04 12.44L14.53 12.51L14.63 11.73L15.13 11.79L15.03 12.57ZM19.99 16.51L19.49 16.44L19.91 13.2L20.39 13.26L20.33 13.75L20.36 13.75C20.52 13.45 20.88 13.27 21.27 13.32C21.35 13.33 21.48 13.35 21.53 13.36L21.47 13.87C21.44 13.86 21.3 13.81 21.17 13.8C20.7 13.74 20.31 14.01 20.25 14.45L19.99 16.51ZM29.89 17.78L29.39 17.71L29.81 14.47L30.29 14.53L30.22 15.02L30.26 15.02C30.42 14.72 30.78 14.54 31.17 14.59C31.25 14.6 31.38 14.62 31.43 14.63L31.37 15.14C31.34 15.13 31.2 15.09 31.07 15.07C30.6 15.01 30.21 15.28 30.15 15.72L29.89 17.78ZM9.4 14.7C9.27 14.9 8.94 15.17 8.37 15.09C7.76 15.01 7.31 14.59 7.39 13.95C7.49 13.21 8.16 13.16 8.77 13.16C9.38 13.16 9.62 13.21 9.65 12.97L9.65 12.95C9.7 12.54 9.51 12.27 9.05 12.21C8.58 12.15 8.28 12.37 8.14 12.59L7.69 12.36C8.02 11.8 8.6 11.7 9.09 11.77C9.51 11.82 10.28 12.04 10.14 13.07L9.87 15.21L9.37 15.14L9.43 14.7L9.4 14.7ZM12.35 12.19C13 12.27 13.31 12.62 13.41 13.1L12.94 13.17C12.88 12.94 12.73 12.67 12.3 12.62C11.9 12.56 11.58 12.73 11.54 13.01C11.51 13.26 11.67 13.41 12.04 13.55L12.51 13.73C13.07 13.95 13.31 14.27 13.26 14.72C13.18 15.28 12.62 15.63 11.87 15.53C11.2 15.45 10.78 15.1 10.74 14.53L11.23 14.47C11.27 14.83 11.5 15.04 11.91 15.09C12.38 15.15 12.7 14.96 12.74 14.68C12.77 14.46 12.63 14.28 12.32 14.17L11.79 13.97C11.21 13.75 10.98 13.42 11.04 12.97C11.11 12.42 11.67 12.1 12.35 12.19ZM18.77 15.59C18.56 16.06 18.04 16.33 17.38 16.24C16.44 16.12 15.95 15.38 16.08 14.38C16.2 13.38 16.88 12.77 17.76 12.88C18.43 12.97 19.1 13.47 18.94 14.68L18.92 14.89L16.56 14.59C16.49 15.29 16.85 15.72 17.43 15.79C17.82 15.84 18.14 15.71 18.31 15.39L18.77 15.59ZM28.01 17.09C27.88 17.29 27.54 17.55 26.98 17.48C26.36 17.4 25.92 16.98 26 16.34C26.09 15.6 26.77 15.55 27.38 15.55C27.98 15.55 28.22 15.6 28.26 15.36L28.26 15.34C28.31 14.93 28.12 14.65 27.66 14.6C27.18 14.53 26.89 14.75 26.75 14.98L26.3 14.75C26.63 14.19 27.21 14.09 27.7 14.15C28.11 14.21 28.88 14.43 28.75 15.46L28.48 17.6L27.98 17.53L28.03 17.09L28.01 17.09ZM17.7 13.33C17.13 13.25 16.71 13.66 16.61 14.16L18.46 14.4C18.53 13.85 18.24 13.4 17.7 13.33ZM32.06 16.41C31.97 17.1 32.22 17.69 32.84 17.77C33.44 17.85 33.84 17.38 33.93 16.65C34.03 15.92 33.77 15.39 33.16 15.31C32.53 15.23 32.15 15.72 32.06 16.41ZM7.89 14.04C7.84 14.39 8.11 14.6 8.51 14.66C9.1 14.73 9.47 14.38 9.52 13.97L9.58 13.51C9.48 13.6 8.91 13.59 8.69 13.59C8.3 13.59 7.94 13.66 7.89 14.04ZM26.49 16.43C26.45 16.78 26.72 16.99 27.11 17.04C27.7 17.12 28.08 16.76 28.13 16.36L28.19 15.9C28.09 15.99 27.51 15.98 27.3 15.98C26.9 15.98 26.54 16.05 26.49 16.43Z" fill="#FFFFFF" fill-opacity="1.000000" fill-rule="evenodd"/>
</svg>
