<svg width="134.315430" height="44.000000" viewBox="0 0 134.315 44" fill="none"
    xmlns="http://www.w3.org/2000/svg"
    xmlns:xlink="http://www.w3.org/1999/xlink">
    <desc>
			Created with Pixso.
    </desc>
    <defs/>
    <rect id="Rectangle 383" rx="16.000000" width="44.000000" height="44.000000" fill="#40BFFF" fill-opacity="1.000000"/>
    <path id="Vector 40 (Stroke)" d="M31.06 20.27C32.01 21.22 32.01 22.77 31.06 23.72L23.72 31.06C22.77 32.01 21.22 32.01 20.27 31.06L12.93 23.72C11.98 22.77 11.98 21.22 12.93 20.27L20.27 12.93C21.22 11.98 22.77 11.98 23.72 12.93L31.06 20.27ZM22 18.12L18.12 22L22 25.87L25.87 22L22 18.12Z" fill="#FFFFFF" fill-opacity="1.000000" fill-rule="evenodd"/>
    <path id="E-Comm" d="M71.78 20.3Q71.08 21.69 71.08 23.44Q71.08 25.19 71.79 26.58Q71.84 26.68 71.89 26.77Q72.31 27.52 72.91 28.11Q73.45 28.65 74.15 29.04Q74.34 29.15 74.54 29.24Q75.84 29.86 77.44 29.86Q79.26 29.86 80.65 29.09Q80.98 28.91 81.29 28.68Q81.86 28.26 82.29 27.73Q83.08 26.77 83.43 25.45L80.05 25.45Q79.77 26.03 79.32 26.41Q79.16 26.55 78.97 26.66Q78.85 26.74 78.72 26.8Q78.13 27.07 77.4 27.07Q76.54 27.07 75.87 26.71Q75.44 26.48 75.09 26.09Q75.01 25.99 74.94 25.89Q74.22 24.94 74.22 23.44Q74.22 21.93 74.94 20.98Q75.01 20.88 75.09 20.79Q75.44 20.4 75.87 20.16Q76.54 19.8 77.4 19.8Q78.13 19.8 78.72 20.08Q78.85 20.14 78.97 20.21Q79.16 20.32 79.32 20.46Q79.77 20.83 80.05 21.42L83.43 21.42Q83.09 20.12 82.32 19.17Q81.87 18.62 81.29 18.18Q80.96 17.94 80.6 17.75Q79.22 16.99 77.44 16.99Q75.85 16.99 74.56 17.6Q74.35 17.7 74.15 17.82Q73.48 18.2 72.94 18.72Q72.32 19.32 71.89 20.1Q71.84 20.2 71.78 20.3ZM54.5 22.16L54.5 19.6L59.17 19.6L59.17 17.14L51.43 17.14L51.43 29.77L59.17 29.77L59.17 27.31L54.5 27.31L54.5 24.53L58.62 24.53L58.62 22.16L54.5 22.16ZM87.45 29.4Q88.55 29.92 89.89 29.92Q91.18 29.92 92.26 29.44Q92.41 29.37 92.56 29.29Q93.14 28.99 93.6 28.56Q94.09 28.09 94.45 27.48Q94.51 27.38 94.56 27.28Q95.15 26.17 95.15 24.75Q95.15 23.29 94.54 22.16Q94.5 22.09 94.46 22.03Q94.09 21.38 93.57 20.91Q93.13 20.5 92.59 20.21Q92.45 20.14 92.31 20.08Q91.23 19.59 89.93 19.59Q88.62 19.59 87.54 20.08Q87.4 20.14 87.26 20.21Q86.74 20.49 86.31 20.88Q85.77 21.37 85.39 22.03Q85.36 22.08 85.33 22.14Q84.71 23.28 84.71 24.75Q84.71 26.32 85.38 27.49Q85.74 28.11 86.25 28.58Q86.69 28.99 87.24 29.29Q87.34 29.35 87.45 29.4ZM112.02 20.29Q111.03 19.62 109.6 19.62Q109.01 19.62 108.46 19.79Q108.04 19.91 107.64 20.14Q106.97 20.53 106.51 21.09Q106.35 21.28 106.22 21.49Q105.94 21 105.55 20.63Q105.23 20.33 104.82 20.11Q104.76 20.07 104.69 20.04Q103.85 19.62 102.8 19.62Q101.85 19.62 101.09 19.99Q100.48 20.29 100.05 20.76Q99.95 20.87 99.86 20.99L99.86 19.73L96.79 19.73L96.79 29.77L99.86 29.77L99.86 24.32Q99.86 23.41 100.31 22.89Q100.34 22.85 100.38 22.82Q100.48 22.71 100.59 22.63Q101.07 22.28 101.79 22.28Q102.51 22.28 102.98 22.62Q103.1 22.71 103.2 22.82Q103.24 22.85 103.27 22.89Q103.72 23.41 103.72 24.32L103.72 29.77L106.78 29.77L106.78 24.32Q106.78 23.41 107.22 22.89Q107.26 22.85 107.29 22.82Q107.39 22.71 107.51 22.62Q107.98 22.28 108.7 22.28Q109.43 22.28 109.9 22.63Q110.02 22.71 110.12 22.82Q110.15 22.85 110.18 22.89Q110.63 23.41 110.63 24.32L110.63 29.77L113.69 29.77L113.69 23.91Q113.69 22.12 112.82 21.02Q112.71 20.88 112.58 20.76Q112.32 20.49 112.02 20.29ZM131.08 20.29Q130.1 19.62 128.66 19.62Q128.07 19.62 127.52 19.79Q127.1 19.91 126.7 20.14Q126.03 20.53 125.57 21.09Q125.41 21.28 125.28 21.49Q125 21 124.61 20.63Q124.29 20.33 123.89 20.11Q123.82 20.07 123.75 20.04Q122.91 19.62 121.86 19.62Q120.91 19.62 120.15 19.99Q119.54 20.29 119.12 20.76Q119.02 20.87 118.93 20.99L118.93 19.73L115.85 19.73L115.85 29.77L118.93 29.77L118.93 24.32Q118.93 23.41 119.37 22.89Q119.4 22.85 119.44 22.82Q119.54 22.71 119.65 22.63Q120.13 22.28 120.85 22.28Q121.57 22.28 122.04 22.62Q122.16 22.71 122.27 22.82Q122.3 22.85 122.33 22.89Q122.78 23.41 122.78 24.32L122.78 29.77L125.84 29.77L125.84 24.32Q125.84 23.41 126.29 22.89Q126.32 22.85 126.35 22.82Q126.46 22.71 126.57 22.62Q127.05 22.28 127.76 22.28Q128.49 22.28 128.96 22.63Q129.08 22.71 129.18 22.82Q129.21 22.85 129.24 22.89Q129.69 23.41 129.69 24.32L129.69 29.77L132.75 29.77L132.75 23.91Q132.75 22.12 131.88 21.02Q131.77 20.88 131.64 20.76Q131.38 20.49 131.08 20.29ZM68.9 24.73L68.9 22.17L60.98 22.17L60.98 24.73L68.9 24.73ZM90.68 27.11Q90.31 27.25 89.89 27.25Q89.44 27.25 89.07 27.09Q88.71 26.93 88.42 26.61Q87.84 25.96 87.84 24.75Q87.84 23.53 88.43 22.89Q88.71 22.6 89.04 22.44Q89.44 22.25 89.93 22.25Q90.36 22.25 90.72 22.4Q91.1 22.57 91.41 22.9Q91.42 22.91 91.42 22.91Q92.02 23.56 92.02 24.75Q92.02 25.91 91.44 26.56Q91.42 26.58 91.39 26.61Q91.07 26.95 90.68 27.11Z" fill="#22262A" fill-opacity="1.000000" fill-rule="evenodd"/>
</svg>
