<svg width="67.671387" height="88.838135" viewBox="0 0 67.6714 88.8381" fill="none"
    xmlns="http://www.w3.org/2000/svg"
    xmlns:xlink="http://www.w3.org/1999/xlink">
    <desc>
			Created with Pixso.
    </desc>
    <defs/>
    <path id="Path 3" d="M0 70.27L0 88.83L67.66 88.83L67.66 70.27C67.66 68.2 66.84 66.21 65.37 64.75C63.91 63.29 61.93 62.46 59.86 62.46L7.8 62.46C5.73 62.46 3.75 63.29 2.28 64.75C0.82 66.21 0 68.2 0 70.27L0 70.27ZM5.2 70.27C5.2 69.58 5.48 68.92 5.96 68.43C6.45 67.94 7.11 67.67 7.8 67.67L10.4 67.67L10.4 83.63L5.2 83.63L5.2 70.27ZM15.61 67.67L22.34 67.67L33.83 79.15L45.32 67.67L52.04 67.67L52.04 83.63L15.61 83.63L15.61 67.67ZM62.46 70.27L62.46 83.63L57.25 83.63L57.25 67.66L59.86 67.66C60.55 67.66 61.21 67.94 61.7 68.43C62.18 68.92 62.46 69.58 62.46 70.27ZM37.96 67.67L33.83 71.79L29.7 67.67L37.96 67.67Z" fill="#FF6875" fill-opacity="1.000000" fill-rule="nonzero"/>
    <path id="Path 4" d="M53.3 52.05L57.26 52.05L57.26 46.84L59.86 46.84C61.93 46.84 63.91 46.02 65.38 44.55C66.84 43.09 67.66 41.1 67.67 39.03L67.67 33.83C67.67 24.86 64.1 16.25 57.76 9.9C51.41 3.56 42.8 -0.01 33.83 0C24.86 0 16.25 3.56 9.9 9.91C3.56 16.25 -0.01 24.86 0 33.83L0 39.04C0 41.11 0.82 43.09 2.28 44.55C3.75 46.02 5.73 46.84 7.8 46.84L11.74 46.84C13.19 50.94 15.75 54.56 19.14 57.29C22.52 60.01 26.6 61.74 30.92 62.28C35.23 62.82 39.61 62.15 43.56 60.34C47.51 58.53 50.89 55.66 53.3 52.05ZM59.86 41.64L57.11 41.64C57.2 40.77 57.25 39.9 57.25 39.03L57.25 33.83C57.25 32.96 57.2 32.09 57.11 31.23L59.85 31.23C60.54 31.23 61.21 31.5 61.69 31.99C62.18 32.48 62.46 33.14 62.46 33.83L62.46 39.03C62.46 39.72 62.18 40.39 61.7 40.88C61.21 41.36 60.54 41.64 59.85 41.64L59.86 41.64ZM33.83 5.2C40.09 5.21 46.17 7.27 51.15 11.05C56.13 14.84 59.74 20.15 61.42 26.18C60.9 26.08 60.38 26.02 59.86 26.02L55.91 26.02C54.3 21.46 51.31 17.5 47.35 14.71C43.4 11.91 38.67 10.41 33.83 10.41C28.98 10.41 24.26 11.91 20.3 14.71C16.35 17.5 13.36 21.46 11.74 26.02L7.8 26.02C7.28 26.02 6.75 26.08 6.24 26.18C7.92 20.15 11.53 14.84 16.51 11.05C21.49 7.27 27.57 5.21 33.83 5.2ZM48.77 23.43C47.09 25.83 44.86 27.8 42.25 29.15C39.65 30.51 36.76 31.22 33.83 31.23L15.8 31.23C16.32 27.61 17.92 24.23 20.38 21.54C22.85 18.84 26.07 16.94 29.63 16.1C33.19 15.26 36.92 15.51 40.33 16.82C43.74 18.12 46.69 20.43 48.77 23.43ZM7.8 41.64C7.11 41.64 6.45 41.36 5.96 40.88C5.48 40.39 5.2 39.73 5.2 39.04L5.2 33.83C5.2 33.14 5.48 32.48 5.96 31.99C6.45 31.51 7.11 31.23 7.8 31.23L10.56 31.23C10.46 32.09 10.41 32.96 10.41 33.83L10.41 39.04C10.41 39.91 10.46 40.78 10.56 41.64L7.8 41.64ZM15.61 39.04L15.61 36.44L33.83 36.44C37.12 36.43 40.38 35.73 43.39 34.38C46.4 33.04 49.09 31.07 51.29 28.62C51.79 30.31 52.05 32.07 52.05 33.83L52.05 39.04C52.05 41.74 51.45 44.41 50.29 46.84L41.64 46.84L39.35 44.56C37.88 46.02 35.9 46.85 33.82 46.85C31.75 46.85 29.77 46.02 28.3 44.56L24.62 48.24C26.84 50.45 29.78 51.79 32.9 52.02C36.03 52.24 39.13 51.33 41.63 49.45L41.63 52.05L46.56 52.05C44 54.56 40.75 56.25 37.23 56.92C33.71 57.6 30.07 57.21 26.76 55.82C23.46 54.44 20.64 52.1 18.65 49.11C16.67 46.13 15.61 42.62 15.61 39.04L15.61 39.04Z" fill="#FF6875" fill-opacity="1.000000" fill-rule="nonzero"/>
</svg>
