<svg width="38.043701" height="25.140625" viewBox="0 0 38.0437 25.1406" fill="none"
    xmlns="http://www.w3.org/2000/svg"
    xmlns:xlink="http://www.w3.org/1999/xlink">
    <desc>
			Created with Pixso.
    </desc>
    <defs/>
    <path id="Shape 327" d="M1.65 0L36.38 0C36.83 0.01 37.26 0.2 37.57 0.52C37.88 0.85 38.05 1.28 38.04 1.73L38.04 23.4C38.05 23.85 37.88 24.29 37.57 24.61C37.26 24.93 36.83 25.12 36.38 25.14L1.65 25.14C1.2 25.12 0.77 24.93 0.46 24.61C0.15 24.29 -0.01 23.85 0 23.4L0 1.73C-0.01 1.28 0.15 0.85 0.46 0.52C0.77 0.2 1.2 0.01 1.65 0Z" fill="#F1F1F1" fill-opacity="1.000000" fill-rule="nonzero"/>
    <path id="Shape 327 copy" d="M0.41 24.54C0.14 24.22 0 23.82 0 23.4L0 1.73C-0.01 1.28 0.16 0.85 0.47 0.52C0.78 0.2 1.2 0.01 1.65 0L36.39 0C36.81 0 37.21 0.16 37.51 0.46L0.41 24.54L0.41 24.54Z" fill="#FFFFFF" fill-opacity="0.730000" fill-rule="nonzero"/>
    <path id="Shape 335" d="M14.64 17.96L15.94 15.61L15.22 9.97L16.99 9.97L17.28 13.31L19.01 9.97L20.84 9.97L16.63 17.96L14.64 17.96ZM9.09 13.74C9.36 12.37 10.69 11.93 12.65 11.93C12.77 11.32 12.38 11.17 11.72 11.19C11.13 11.22 10.56 11.35 10.02 11.59L10.18 10.21C10.82 10.01 11.49 9.9 12.16 9.86C13.39 9.84 14.75 10.23 14.44 11.83L13.68 15.58L11.91 15.58L12.03 15.01C11.82 15.22 11.58 15.39 11.31 15.51C11.03 15.62 10.74 15.68 10.45 15.68C9.61 15.68 8.86 15.13 9.09 13.74L9.09 13.74ZM10.9 13.66C10.85 13.74 10.81 13.83 10.81 13.93C10.81 14.02 10.83 14.12 10.88 14.2C10.93 14.28 11 14.35 11.09 14.39C11.18 14.44 11.27 14.45 11.37 14.44C11.59 14.45 11.8 14.38 11.97 14.25C12.15 14.11 12.26 13.92 12.3 13.7C12.33 13.53 12.36 13.37 12.4 13.2L11.96 13.2C11.76 13.18 11.55 13.21 11.37 13.29C11.19 13.37 11.03 13.5 10.9 13.65L10.9 13.66ZM2.99 15.58L4.45 8.4L7.76 8.4C8.06 8.4 8.35 8.47 8.61 8.6C8.87 8.74 9.1 8.93 9.27 9.17C9.45 9.41 9.56 9.69 9.6 9.98C9.65 10.27 9.62 10.57 9.52 10.85C9.43 11.5 9.1 12.1 8.6 12.53C8.09 12.97 7.45 13.2 6.79 13.2L5.41 13.2L4.93 15.58L2.99 15.58ZM5.68 11.83L6.59 11.83C6.86 11.81 7.11 11.7 7.31 11.52C7.51 11.34 7.65 11.11 7.7 10.85C7.74 10.74 7.76 10.62 7.75 10.51C7.73 10.39 7.69 10.28 7.63 10.19C7.57 10.09 7.48 10.01 7.38 9.95C7.28 9.9 7.16 9.87 7.05 9.87L6.1 9.87L5.68 11.83Z" fill="#3284AE" fill-opacity="1.000000" fill-rule="nonzero"/>
    <path id="Shape 335" d="M26.31 13.74C26.58 12.37 27.92 11.93 29.91 11.93C30.05 11.32 29.66 11.17 28.99 11.19C28.39 11.22 27.8 11.35 27.25 11.58L27.41 10.21C28.07 10.01 28.75 9.89 29.44 9.86C30.68 9.84 32.04 10.23 31.73 11.82L30.96 15.57L29.18 15.57L29.3 15C28.87 15.43 28.29 15.68 27.68 15.68C26.83 15.68 26.07 15.13 26.31 13.74ZM28.14 13.65C28.09 13.73 28.06 13.83 28.06 13.93C28.05 14.03 28.08 14.12 28.13 14.2C28.19 14.29 28.26 14.35 28.35 14.39C28.44 14.44 28.54 14.45 28.63 14.44C28.85 14.45 29.07 14.38 29.24 14.24C29.41 14.11 29.52 13.91 29.56 13.7C29.6 13.52 29.62 13.37 29.66 13.2L29.23 13.2C29.02 13.18 28.81 13.21 28.62 13.29C28.43 13.37 28.27 13.49 28.14 13.65L28.14 13.65ZM31.78 15.57L33.24 8.38L35.06 8.38L33.58 15.57L31.78 15.57ZM20.21 15.57L21.67 8.4L24.97 8.4C25.26 8.4 25.55 8.47 25.82 8.6C26.08 8.74 26.3 8.93 26.47 9.17C26.65 9.41 26.76 9.68 26.8 9.97C26.85 10.26 26.82 10.56 26.73 10.84C26.63 11.5 26.3 12.1 25.8 12.53C25.29 12.97 24.65 13.2 23.98 13.19L22.62 13.19L22.12 15.57L20.21 15.57ZM22.89 11.82L23.78 11.82C24.05 11.8 24.31 11.69 24.51 11.52C24.71 11.34 24.85 11.1 24.91 10.84C24.95 10.73 24.96 10.61 24.95 10.5C24.93 10.38 24.89 10.27 24.83 10.18C24.76 10.08 24.67 10 24.57 9.95C24.47 9.89 24.35 9.86 24.24 9.86L23.29 9.86L22.89 11.82Z" fill="#3CA9C7" fill-opacity="1.000000" fill-rule="nonzero"/>
</svg>
