<svg width="24.000000" height="24.000000" viewBox="0 0 24 24" fill="none"
    xmlns="http://www.w3.org/2000/svg"
    xmlns:xlink="http://www.w3.org/1999/xlink">
    <desc>
			Created with Pixso.
    </desc>
    <defs/>
    <path id="profile_close_2" d="M23.82 20.01C23.24 18.46 22.35 17.05 21.2 15.86C20.06 14.67 18.68 13.73 17.16 13.09C17.99 12.41 18.66 11.56 19.12 10.59C19.58 9.62 19.83 8.57 19.84 7.49C19.81 5.62 19.08 3.82 17.8 2.44C16.52 1.07 14.78 0.22 12.91 0.05C12.3 -0.02 11.68 -0.02 11.07 0.05C9.2 0.22 7.46 1.07 6.18 2.44C4.9 3.82 4.18 5.62 4.15 7.49C4.16 8.57 4.4 9.62 4.87 10.59C5.33 11.56 6 12.41 6.82 13.09C5.3 13.73 3.93 14.67 2.78 15.86C1.64 17.05 0.75 18.46 0.17 20.01C0 20.46 -0.04 20.95 0.03 21.42C0.1 21.9 0.29 22.35 0.57 22.73C0.87 23.13 1.26 23.45 1.71 23.67C2.15 23.89 2.64 24 3.13 23.99L20.86 23.99C21.36 24 21.85 23.89 22.29 23.67C22.74 23.45 23.12 23.13 23.42 22.73C23.71 22.35 23.9 21.9 23.96 21.42C24.03 20.95 23.98 20.46 23.82 20.01ZM7.29 7.49C7.31 6.36 7.75 5.27 8.53 4.44C9.32 3.62 10.38 3.11 11.51 3.02C11.83 2.98 12.16 2.98 12.48 3.02C13.33 3.16 14.13 3.53 14.78 4.1C15.43 4.67 15.9 5.41 16.13 6.24C16.37 7.07 16.37 7.95 16.12 8.78C15.87 9.61 15.39 10.35 14.74 10.91C14.09 11.47 13.28 11.83 12.43 11.96C11.58 12.08 10.71 11.95 9.92 11.59C9.14 11.23 8.47 10.65 8.01 9.93C7.54 9.2 7.29 8.36 7.29 7.49ZM3.13 20.99C3.84 19.22 5.07 17.71 6.65 16.64C8.23 15.57 10.09 15 12 15C13.9 15 15.77 15.57 17.35 16.64C18.93 17.71 20.15 19.22 20.86 20.99L3.13 20.99L3.13 20.99Z" fill="#22262A" fill-opacity="1.000000" fill-rule="evenodd"/>
</svg>
