<svg width="76.952881" height="10.634399" viewBox="0 0 76.9529 10.6344" fill="none"
    xmlns="http://www.w3.org/2000/svg"
    xmlns:xlink="http://www.w3.org/1999/xlink">
    <desc>
			Created with Pixso.
    </desc>
    <defs/>
    <path id="star" d="M44.26 4.14L40.69 6.61L41.74 10.63L38.27 8.2L34.59 10.5L36.01 6.53L32.69 3.93L37.03 3.9L38.66 6.1e-5L39.92 3.95L44.26 4.14Z" fill="#FFC600" fill-opacity="1.000000" fill-rule="nonzero"/>
    <path id="star copy 3" d="M27.91 4.14L24.35 6.61L25.39 10.63L21.93 8.2L18.24 10.5L19.67 6.53L16.34 3.93L20.68 3.9L22.32 6.1e-5L23.58 3.95L27.91 4.14Z" fill="#FFC600" fill-opacity="1.000000" fill-rule="nonzero"/>
    <path id="star copy 4" d="M11.57 4.14L8 6.61L9.05 10.63L5.58 8.2L1.9 10.5L3.32 6.53L0 3.93L4.34 3.9L5.97 6.1e-5L7.23 3.95L11.57 4.14Z" fill="#FFC600" fill-opacity="1.000000" fill-rule="nonzero"/>
    <path id="star copy" d="M60.6 4.14L57.04 6.61L58.08 10.63L54.62 8.2L50.93 10.5L52.36 6.53L49.03 3.93L53.37 3.9L55.01 6.1e-5L56.27 3.95L60.6 4.14Z" fill="#FFC600" fill-opacity="1.000000" fill-rule="nonzero"/>
    <path id="star copy 2" d="M76.95 4.14L73.38 6.61L74.43 10.63L70.96 8.2L67.28 10.5L68.7 6.53L65.38 3.93L69.72 3.9L71.35 6.1e-5L72.61 3.95L76.95 4.14Z" fill="#C1C8CE" fill-opacity="1.000000" fill-rule="nonzero"/>
</svg>
