<svg width="20.951660" height="20.940308" viewBox="0 0 20.9517 20.9403" fill="none"
    xmlns="http://www.w3.org/2000/svg"
    xmlns:xlink="http://www.w3.org/1999/xlink">
    <desc>
			Created with Pixso.
    </desc>
    <defs/>
    <path id="search-icon" d="M20.55 18.68L14.24 12.35C15.37 10.74 15.86 8.77 15.6 6.82C15.35 4.87 14.37 3.09 12.87 1.83C11.36 0.56 9.44 -0.09 7.47 0C5.51 0.09 3.65 0.92 2.27 2.31C0.89 3.71 0.08 5.57 0 7.53C-0.07 9.5 0.59 11.42 1.86 12.91C3.14 14.41 4.93 15.37 6.88 15.61C8.83 15.85 10.8 15.35 12.39 14.2L18.7 20.54C18.82 20.67 18.97 20.76 19.13 20.83C19.29 20.9 19.46 20.93 19.63 20.94C19.81 20.94 19.98 20.9 20.14 20.84C20.3 20.77 20.44 20.67 20.57 20.55C20.69 20.43 20.79 20.28 20.85 20.12C20.92 19.96 20.95 19.79 20.95 19.61C20.94 19.44 20.91 19.27 20.84 19.11C20.77 18.95 20.67 18.8 20.55 18.68L20.55 18.68ZM7.86 13.04C6.82 13.05 5.8 12.74 4.93 12.17C4.06 11.6 3.38 10.78 2.98 9.82C2.58 8.86 2.47 7.8 2.67 6.78C2.87 5.75 3.37 4.82 4.1 4.08C4.83 3.34 5.77 2.84 6.79 2.63C7.81 2.43 8.87 2.53 9.83 2.92C10.8 3.32 11.62 4 12.2 4.86C12.78 5.73 13.09 6.74 13.09 7.78C13.09 9.17 12.54 10.51 11.56 11.49C10.58 12.48 9.25 13.03 7.86 13.04Z" fill="#22262A" fill-opacity="1.000000" fill-rule="evenodd"/>
</svg>
