<svg width="100.755859" height="65.860352" viewBox="0 0 100.756 65.8604" fill="none"
    xmlns="http://www.w3.org/2000/svg"
    xmlns:xlink="http://www.w3.org/1999/xlink">
    <desc>
			Created with Pixso.
    </desc>
    <defs/>
    <path id="shipping" d="M100.75 33.92C100.75 33.9 100.75 33.88 100.75 33.86C100.74 33.25 100.49 32.67 100.06 32.25C99.63 31.82 99.04 31.58 98.43 31.58L97.83 31.58L88.42 13.4C88.22 13.03 87.92 12.71 87.56 12.49C87.2 12.27 86.78 12.16 86.35 12.16L70.3 12.16L70.91 7.3C71.01 6.37 70.91 5.43 70.62 4.55C70.33 3.66 69.86 2.84 69.23 2.15C68.6 1.46 67.83 0.91 66.97 0.54C66.12 0.17 65.19 -0.02 64.26 0L14.41 0C13.81 0 13.22 0.23 12.77 0.64C12.32 1.05 12.04 1.61 11.98 2.22L11.47 6.22L39.87 6.22C40.31 6.21 40.74 6.3 41.14 6.47C41.54 6.64 41.91 6.88 42.21 7.19C42.51 7.51 42.75 7.88 42.91 8.28C43.07 8.69 43.14 9.12 43.13 9.56C43.1 10.45 42.73 11.29 42.09 11.92C41.45 12.54 40.59 12.89 39.7 12.89L30.23 12.89L30.23 12.91L2.42 12.91C1.79 12.91 1.18 13.16 0.73 13.6C0.28 14.04 0.02 14.64 0 15.27C-0.01 15.57 0.04 15.88 0.15 16.17C0.26 16.45 0.43 16.72 0.64 16.94C0.86 17.16 1.11 17.33 1.4 17.45C1.68 17.57 1.99 17.63 2.3 17.63L39.12 17.63C39.96 17.76 40.72 18.19 41.26 18.84C41.8 19.49 42.09 20.31 42.06 21.16C42.03 22.11 41.63 23.01 40.95 23.68C40.27 24.35 39.36 24.72 38.41 24.74L13.03 24.74C12.39 24.74 11.78 24.99 11.32 25.44C10.87 25.88 10.6 26.49 10.58 27.12C10.57 27.44 10.62 27.75 10.74 28.04C10.85 28.33 11.02 28.59 11.24 28.81C11.45 29.04 11.71 29.21 12 29.33C12.29 29.45 12.59 29.52 12.91 29.51L37.99 29.51C38.84 29.63 39.61 30.05 40.16 30.71C40.71 31.36 41.01 32.19 40.98 33.04C40.95 34 40.55 34.9 39.87 35.57C39.18 36.24 38.27 36.61 37.31 36.62L8.53 36.62L6.11 36.62C5.47 36.62 4.86 36.87 4.41 37.32C3.95 37.76 3.68 38.37 3.66 39.01C3.65 39.32 3.71 39.63 3.82 39.92C3.93 40.21 4.1 40.47 4.32 40.7C4.53 40.92 4.79 41.1 5.08 41.22C5.37 41.34 5.68 41.4 5.99 41.4L8.07 41.4L7.26 49.94C7.16 50.87 7.26 51.8 7.55 52.69C7.84 53.58 8.31 54.4 8.94 55.09C9.57 55.78 10.34 56.33 11.19 56.7C12.05 57.07 12.98 57.26 13.91 57.24L15.71 57.24C16.13 59.66 17.4 61.85 19.28 63.43C21.17 65.01 23.55 65.87 26.01 65.86C28.51 65.84 30.93 64.98 32.88 63.42C34.83 61.85 36.19 59.68 36.75 57.24L59.22 57.24C61.01 57.23 62.74 56.58 64.1 55.41C65.36 56.6 67.03 57.26 68.76 57.24L69.13 57.24C69.55 59.66 70.81 61.85 72.7 63.43C74.58 65.01 76.96 65.87 79.42 65.86C81.92 65.84 84.34 64.98 86.29 63.42C88.24 61.85 89.61 59.68 90.17 57.24L91.65 57.24C93.55 57.21 95.38 56.47 96.79 55.18C98.19 53.9 99.08 52.14 99.28 50.24L100.74 34.15C100.74 34.13 100.74 34.11 100.74 34.08C100.74 34.06 100.74 34.02 100.75 33.98C100.75 33.95 100.75 33.93 100.75 33.92ZM26.13 61.08C25.35 61.09 24.58 60.93 23.87 60.63C23.15 60.33 22.5 59.89 21.96 59.33C21.42 58.78 21 58.12 20.72 57.39C20.43 56.67 20.3 55.9 20.33 55.12C20.38 53.53 21.04 52.02 22.18 50.91C23.32 49.8 24.85 49.17 26.44 49.16C27.22 49.16 27.99 49.31 28.71 49.61C29.42 49.91 30.07 50.35 30.61 50.91C31.15 51.46 31.58 52.12 31.86 52.85C32.14 53.57 32.27 54.34 32.25 55.12C32.2 56.71 31.53 58.22 30.39 59.33C29.25 60.45 27.72 61.07 26.13 61.08ZM79.55 61.08C78.77 61.09 78 60.93 77.29 60.63C76.57 60.33 75.92 59.89 75.38 59.33C74.84 58.78 74.41 58.12 74.13 57.39C73.85 56.67 73.72 55.9 73.74 55.12C73.79 53.53 74.46 52.02 75.6 50.91C76.74 49.8 78.27 49.17 79.86 49.16C80.64 49.16 81.41 49.31 82.12 49.61C82.84 49.91 83.49 50.35 84.03 50.91C84.57 51.46 84.99 52.12 85.28 52.85C85.56 53.57 85.69 54.34 85.67 55.12C85.61 56.71 84.95 58.22 83.81 59.33C82.67 60.45 81.14 61.07 79.55 61.08ZM94.54 49.93C94.46 50.62 94.13 51.25 93.63 51.71C93.12 52.18 92.46 52.45 91.77 52.47L90.17 52.47C89.64 50.17 88.35 48.11 86.5 46.64C84.65 45.17 82.35 44.38 79.99 44.39C77.58 44.41 75.25 45.2 73.34 46.66C71.42 48.12 70.03 50.15 69.38 52.47L68.89 52.47C68.6 52.48 68.32 52.42 68.06 52.31C67.79 52.2 67.56 52.04 67.36 51.83C67.17 51.61 67.03 51.36 66.94 51.09C66.86 50.81 66.83 50.52 66.86 50.24L69.87 16.92L76.77 16.92L75.68 29.05C75.58 29.98 75.68 30.92 75.97 31.81C76.26 32.7 76.73 33.51 77.36 34.2C77.99 34.89 78.76 35.44 79.61 35.82C80.47 36.19 81.4 36.37 82.33 36.36L95.76 36.36L94.54 49.93Z" fill="#FF6875" fill-opacity="1.000000" fill-rule="nonzero"/>
</svg>
