<svg width="14.633057" height="11.892090" viewBox="0 0 14.6331 11.8921" fill="none"
    xmlns="http://www.w3.org/2000/svg"
    xmlns:xlink="http://www.w3.org/1999/xlink">
    <desc>
			Created with Pixso.
    </desc>
    <defs/>
    <path id="twitter" d="M14.63 1.4C14.08 1.64 13.5 1.8 12.9 1.88C13.53 1.51 14 0.92 14.22 0.22C13.63 0.57 12.99 0.81 12.32 0.95C11.91 0.51 11.37 0.2 10.79 0.07C10.2 -0.06 9.59 -0.02 9.03 0.2C8.47 0.43 7.98 0.81 7.65 1.31C7.31 1.81 7.13 2.4 7.13 3C7.13 3.23 7.15 3.46 7.2 3.68C6 3.62 4.84 3.31 3.77 2.77C2.71 2.23 1.77 1.47 1.02 0.54C0.63 1.2 0.51 1.99 0.68 2.73C0.85 3.48 1.3 4.13 1.94 4.55C1.46 4.54 1 4.41 0.58 4.18L0.58 4.22C0.58 4.91 0.82 5.58 1.26 6.12C1.7 6.65 2.3 7.02 2.98 7.16C2.73 7.23 2.46 7.27 2.19 7.26C2 7.27 1.81 7.25 1.63 7.21C1.82 7.81 2.19 8.33 2.7 8.7C3.2 9.08 3.8 9.29 4.43 9.3C3.37 10.13 2.06 10.58 0.71 10.58C0.47 10.58 0.23 10.57 0 10.54C1.37 11.42 2.96 11.89 4.6 11.89C5.72 11.89 6.83 11.68 7.87 11.25C8.91 10.83 9.85 10.2 10.65 9.4C11.44 8.61 12.07 7.67 12.5 6.63C12.92 5.59 13.14 4.47 13.13 3.35C13.13 3.22 13.13 3.09 13.12 2.96C13.71 2.54 14.23 2.01 14.63 1.4Z" fill="#03A9F4" fill-opacity="1.000000" fill-rule="nonzero"/>
</svg>
