<svg width="17.282715" height="12.645081" viewBox="0 0 17.2827 12.6451" fill="none"
    xmlns="http://www.w3.org/2000/svg"
    xmlns:xlink="http://www.w3.org/1999/xlink">
    <desc>
			Created with Pixso.
    </desc>
    <defs/>
    <path id="twitter" d="M17.28 1.49C16.63 1.75 15.94 1.92 15.24 2C15.98 1.6 16.53 0.97 16.8 0.24C16.1 0.61 15.34 0.87 14.55 1.01C14.07 0.54 13.44 0.21 12.74 0.07C12.05 -0.07 11.32 -0.02 10.66 0.22C10 0.45 9.43 0.86 9.03 1.39C8.63 1.92 8.42 2.55 8.42 3.19C8.42 3.43 8.44 3.68 8.5 3.92C7.09 3.85 5.71 3.52 4.46 2.95C3.2 2.37 2.09 1.57 1.2 0.58C0.74 1.28 0.6 2.11 0.8 2.9C1.01 3.7 1.54 4.39 2.29 4.84C1.73 4.83 1.18 4.69 0.69 4.45L0.69 4.48C0.69 5.22 0.97 5.93 1.49 6.5C2 7.08 2.72 7.47 3.52 7.62C3.22 7.69 2.91 7.73 2.59 7.73C2.37 7.73 2.14 7.71 1.92 7.67C2.15 8.3 2.59 8.86 3.18 9.25C3.78 9.65 4.49 9.88 5.23 9.89C3.98 10.77 2.43 11.25 0.84 11.25C0.56 11.25 0.28 11.24 0 11.21C1.61 12.15 3.5 12.65 5.43 12.64C6.75 12.65 8.07 12.42 9.3 11.97C10.52 11.51 11.64 10.84 12.58 10C13.52 9.16 14.26 8.15 14.76 7.05C15.27 5.94 15.52 4.76 15.51 3.56C15.51 3.42 15.51 3.29 15.5 3.15C16.2 2.7 16.8 2.14 17.28 1.49Z" fill="#FFFFFF" fill-opacity="1.000000" fill-rule="nonzero"/>
</svg>
