<svg width="38.334473" height="25.142090" viewBox="0 0 38.3345 25.1421" fill="none"
    xmlns="http://www.w3.org/2000/svg"
    xmlns:xlink="http://www.w3.org/1999/xlink">
    <desc>
			Created with Pixso.
    </desc>
    <defs>
        <linearGradient x1="19.167339" y1="25.142090" x2="19.167339" y2="0.000000" id="paint_linear_8_528_0" gradientUnits="userSpaceOnUse">
            <stop stop-color="#E59703"/>
            <stop offset="0.231000" stop-color="#E59703"/>
            <stop offset="0.234000" stop-color="#FFFFFF"/>
            <stop offset="0.761000" stop-color="#FFFFFF"/>
            <stop offset="0.766000" stop-color="#5457BB"/>
            <stop offset="1.000000" stop-color="#5457BB"/>
        </linearGradient>
    </defs>
    <path id="Shape 327" d="M1.66 0L36.66 0C36.89 0 37.11 0.05 37.31 0.14C37.52 0.23 37.7 0.36 37.86 0.52C38.01 0.68 38.13 0.87 38.21 1.08C38.29 1.28 38.33 1.51 38.33 1.73L38.33 23.4C38.33 23.63 38.29 23.85 38.21 24.06C38.13 24.26 38.01 24.45 37.86 24.62C37.7 24.78 37.52 24.91 37.31 25C37.11 25.08 36.89 25.13 36.66 25.14L1.66 25.14C1.44 25.13 1.22 25.08 1.01 25C0.81 24.91 0.62 24.78 0.47 24.62C0.31 24.45 0.19 24.26 0.11 24.06C0.03 23.85 -0.01 23.63 0 23.4L0 1.73C-0.01 1.51 0.03 1.28 0.11 1.08C0.19 0.87 0.31 0.68 0.47 0.52C0.62 0.36 0.81 0.23 1.01 0.14C1.22 0.05 1.44 0 1.66 0Z" fill="url(#paint_linear_8_528_0)" fill-opacity="1.000000" fill-rule="nonzero"/>
    <path id="Shape 328" d="M29.97 17.22L29.72 15.93L26.98 15.93L26.53 17.22L24.29 17.22L27.5 9.16C27.57 8.96 27.71 8.79 27.89 8.67C28.07 8.55 28.28 8.5 28.49 8.51L30.22 8.51L31.94 17.22L29.97 17.22ZM28.73 10.88L27.6 14.14L29.37 14.14L28.73 10.88ZM21.44 10.99C21.44 11.94 24.44 12.15 24.44 14.34C24.44 16.44 22.23 17.22 20.76 17.22C19.93 17.23 19.1 17.07 18.33 16.74L18.65 14.85C19.53 15.57 22.2 15.78 22.2 14.64C22.2 13.49 19.23 13.46 19.23 11.29C19.23 8.98 21.76 8.5 22.83 8.5C23.49 8.52 24.14 8.64 24.76 8.87L24.46 10.68C23.54 10.16 21.44 10.04 21.44 11L21.44 10.99ZM14.86 17.22L16.2 8.51L18.36 8.51L17.01 17.22L14.86 17.22ZM9.7 17.22L7.84 9.66C8.17 9.87 8.48 10.09 8.78 10.35C9.68 11.11 10.36 12.1 10.76 13.21L11 14.5L13.05 8.51L15.37 8.51L11.95 17.22L9.7 17.22ZM5.91 8.75L5.81 8.72L5.91 8.75ZM5.69 8.68L5.64 8.67L5.69 8.68ZM6.22 8.85L6.09 8.81L6.22 8.85ZM7.71 9.58C7.64 9.53 7.58 9.49 7.51 9.46C7.57 9.5 7.64 9.54 7.71 9.58L7.71 9.58ZM7.2 9.29C7.14 9.26 7.08 9.22 7.02 9.2C7.08 9.23 7.13 9.26 7.19 9.29L7.2 9.29ZM6.66 9.03L6.54 8.98L6.66 9.03Z" fill="#494CA3" fill-opacity="1.000000" fill-rule="nonzero"/>
    <path id="Shape 328" d="M10.76 13.21L10.03 9.3C9.99 9.06 9.87 8.85 9.68 8.7C9.49 8.56 9.25 8.49 9.01 8.51L5.62 8.51L5.58 8.66C6.76 8.98 7.85 9.55 8.77 10.35C9.67 11.12 10.35 12.1 10.76 13.21Z" fill="#FFC000" fill-opacity="1.000000" fill-rule="nonzero"/>
</svg>
