<svg width="38.314697" height="25.143066" viewBox="0 0 38.3147 25.1431" fill="none"
    xmlns="http://www.w3.org/2000/svg"
    xmlns:xlink="http://www.w3.org/1999/xlink">
    <desc>
			Created with Pixso.
    </desc>
    <defs/>
    <path id="Shape 327" d="M1.66 0L36.64 0C36.87 0 37.09 0.05 37.29 0.14C37.5 0.23 37.68 0.36 37.84 0.52C37.99 0.68 38.11 0.87 38.19 1.08C38.27 1.28 38.31 1.51 38.31 1.73L38.31 23.41C38.32 23.86 38.15 24.29 37.84 24.62C37.52 24.94 37.09 25.13 36.64 25.14L1.66 25.14C1.21 25.13 0.78 24.94 0.47 24.62C0.16 24.29 -0.01 23.86 0 23.41L0 1.73C-0.01 1.51 0.03 1.28 0.11 1.08C0.19 0.87 0.31 0.68 0.47 0.52C0.62 0.36 0.81 0.23 1.01 0.14C1.22 0.05 1.44 0 1.66 0Z" fill="#353A40" fill-opacity="1.000000" fill-rule="nonzero"/>
    <path id="WESTERN UNION" d="M22.68 16.56C22.42 16.42 22.2 16.21 22.06 15.95C21.89 15.63 21.81 15.28 21.82 14.91C21.81 14.67 21.84 14.42 21.92 14.19C22 13.96 22.13 13.74 22.29 13.56C22.47 13.39 22.68 13.26 22.9 13.18C23.13 13.1 23.37 13.06 23.62 13.07C23.86 13.06 24.1 13.09 24.33 13.18C24.56 13.26 24.77 13.39 24.95 13.55C25.11 13.73 25.24 13.94 25.32 14.17C25.4 14.4 25.44 14.64 25.42 14.89C25.44 15.24 25.37 15.59 25.22 15.91C25.09 16.17 24.88 16.39 24.63 16.53C24.33 16.69 24 16.76 23.66 16.75C23.33 16.76 22.99 16.7 22.68 16.56ZM23.09 14.14C22.96 14.38 22.89 14.65 22.89 14.92C22.89 15.19 22.96 15.46 23.09 15.69C23.16 15.77 23.24 15.83 23.33 15.87C23.42 15.91 23.52 15.93 23.62 15.93C23.72 15.93 23.82 15.91 23.92 15.87C24.01 15.83 24.09 15.77 24.16 15.69C24.31 15.45 24.38 15.16 24.35 14.87C24.37 14.61 24.3 14.35 24.15 14.13C24.08 14.06 24 14 23.91 13.96C23.81 13.92 23.71 13.9 23.61 13.9C23.51 13.9 23.41 13.92 23.32 13.96C23.23 14 23.15 14.06 23.09 14.14ZM13.18 16.72C13 16.7 12.83 16.65 12.68 16.57C12.54 16.49 12.41 16.39 12.31 16.26C12.21 16.14 12.13 16 12.08 15.85C12.02 15.66 11.99 15.46 11.98 15.25L11.98 13.14L13.05 13.14L13.05 15.3C13.05 15.39 13.06 15.47 13.09 15.55C13.11 15.62 13.16 15.7 13.21 15.76C13.33 15.86 13.49 15.92 13.65 15.92C13.81 15.92 13.96 15.86 14.08 15.76C14.14 15.7 14.18 15.62 14.21 15.54C14.24 15.47 14.25 15.38 14.24 15.3L14.24 13.13L15.31 13.13L15.31 15.25C15.31 15.46 15.28 15.66 15.21 15.85C15.15 16.03 15.05 16.2 14.91 16.34C14.79 16.47 14.65 16.57 14.48 16.64C14.24 16.72 13.99 16.76 13.73 16.76C13.55 16.75 13.36 16.74 13.18 16.71L13.18 16.72ZM28.32 16.69L27.02 14.74L27.02 16.69L26.01 16.69L26.01 13.14L27.01 13.14L28.32 15.1L28.32 13.14L29.33 13.14L29.33 16.69L28.32 16.69ZM18.34 16.69L17.04 14.74L17.04 16.69L16.03 16.69L16.03 13.14L17.03 13.14L18.34 15.1L18.34 13.14L19.35 13.14L19.35 16.69L18.34 16.69ZM20.11 16.68L20.11 13.13L21.19 13.13L21.19 16.68L20.11 16.68ZM11.9 11.7C11.67 11.46 11.54 11.15 11.52 10.81L12.54 10.75C12.55 10.89 12.6 11.02 12.67 11.14C12.73 11.21 12.8 11.27 12.88 11.3C12.97 11.34 13.06 11.36 13.15 11.35C13.28 11.36 13.4 11.32 13.5 11.24C13.54 11.21 13.57 11.18 13.59 11.13C13.61 11.09 13.62 11.04 13.62 10.99C13.63 10.95 13.61 10.9 13.59 10.86C13.57 10.81 13.55 10.77 13.51 10.74C13.34 10.63 13.15 10.56 12.96 10.54C12.59 10.48 12.25 10.33 11.95 10.1C11.85 10.02 11.78 9.91 11.72 9.8C11.67 9.68 11.65 9.55 11.65 9.42C11.65 9.24 11.71 9.06 11.81 8.9C11.92 8.73 12.08 8.6 12.27 8.52C12.55 8.41 12.84 8.37 13.13 8.38C13.49 8.36 13.84 8.44 14.14 8.63C14.27 8.73 14.37 8.85 14.44 8.99C14.51 9.13 14.55 9.28 14.56 9.44L13.55 9.5C13.54 9.37 13.48 9.24 13.38 9.15C13.28 9.07 13.15 9.03 13.02 9.04C12.92 9.03 12.82 9.06 12.74 9.12C12.71 9.15 12.69 9.18 12.67 9.21C12.65 9.25 12.64 9.28 12.64 9.32C12.65 9.35 12.65 9.38 12.67 9.41C12.68 9.43 12.7 9.46 12.72 9.48C12.83 9.55 12.96 9.59 13.08 9.61C13.43 9.67 13.77 9.78 14.09 9.92C14.28 10.01 14.43 10.14 14.54 10.32C14.63 10.48 14.68 10.66 14.67 10.84C14.68 11.06 14.61 11.28 14.49 11.47C14.36 11.67 14.18 11.82 13.97 11.91C13.71 12.02 13.42 12.07 13.14 12.06C12.69 12.1 12.25 11.98 11.9 11.7L11.9 11.7ZM28.32 11.99L27.02 10.04L27.02 11.99L26.01 11.99L26.01 8.44L27.01 8.44L28.32 10.4L28.32 8.44L29.33 8.44L29.33 11.99L28.32 11.99ZM24.44 11.99L23.87 10.9C23.82 10.8 23.76 10.71 23.67 10.63C23.6 10.58 23.51 10.55 23.41 10.55L23.32 10.55L23.32 11.99L22.24 11.99L22.24 8.44L24.03 8.44C24.28 8.43 24.54 8.46 24.79 8.52C24.96 8.58 25.11 8.69 25.21 8.85C25.32 9.02 25.38 9.22 25.37 9.42C25.38 9.6 25.33 9.78 25.25 9.93C25.17 10.08 25.05 10.2 24.91 10.28C24.79 10.35 24.66 10.4 24.53 10.42C24.63 10.45 24.73 10.5 24.81 10.55C24.88 10.61 24.93 10.67 24.98 10.74C25.04 10.81 25.09 10.88 25.13 10.96L25.65 11.99L24.44 11.99ZM23.32 9.88L23.77 9.88C23.87 9.87 23.96 9.85 24.05 9.83C24.12 9.81 24.18 9.77 24.23 9.72C24.27 9.66 24.3 9.58 24.3 9.51C24.3 9.46 24.29 9.41 24.27 9.37C24.25 9.32 24.22 9.28 24.19 9.24C24.07 9.17 23.93 9.14 23.79 9.15L23.32 9.15L23.32 9.88ZM18.72 11.99L18.72 8.44L21.59 8.44L21.59 9.2L19.79 9.2L19.79 9.76L21.47 9.76L21.47 10.49L19.79 10.49L19.79 11.19L21.65 11.19L21.65 11.99L18.72 11.99ZM16.06 11.99L16.06 9.31L14.97 9.31L14.97 8.44L18.23 8.44L18.23 9.31L17.13 9.31L17.13 11.99L16.06 11.99ZM8.2 11.99L8.2 8.44L11.08 8.44L11.08 9.2L9.28 9.2L9.28 9.76L10.95 9.76L10.95 10.49L9.27 10.49L9.27 11.19L11.12 11.19L11.12 11.99L8.2 11.99ZM6.03 11.99L5.42 9.75L4.82 11.99L3.76 11.99L2.99 8.44L4.01 8.44L4.38 10.43L4.92 8.44L5.93 8.44L6.47 10.42L6.84 8.44L7.85 8.44L7.09 11.99L6.03 11.99Z" fill="#ECD345" fill-opacity="1.000000" fill-rule="nonzero"/>
    <path id="Shape 338" d="M34.12 16.75L34.12 8.37L35.32 8.37L35.32 16.75L34.12 16.75ZM31.13 16.75L31.13 8.37L32.33 8.37L32.33 16.75L31.13 16.75Z" fill="#ECD345" fill-opacity="1.000000" fill-rule="nonzero"/>
</svg>
